<?xml version="1.0" encoding="UTF-8"?>
<svg version="1.1" xmlns="http://www.w3.org/2000/svg" width="512" height="512">
<path d="M0 0 C3.30937849 2.0220093 3.30937849 2.0220093 7.1875 1.75 C8.77607613 0.9050127 10.36463871 0.05999992 11.953125 -0.78515625 C24.1942908 -7.1226102 38.03431098 -7.67172569 51.28515625 -3.84765625 C65.18339662 1.21841486 74.84773616 9.79927321 81.125 23.1875 C88.17035358 41.04306798 87.3799359 59.32616529 87.125 78.1875 C87.938479 77.63473389 88.75195801 77.08196777 89.59008789 76.51245117 C104.05004767 66.82273737 121.7509212 60.90846379 139.25390625 63.68359375 C151.55524663 66.46435652 161.71377743 72.74579991 169.20703125 83.05078125 C175.90257201 93.9187011 177.6680948 103.53540251 177.125 116.1875 C177.970625 116.61160156 178.81625 117.03570312 179.6875 117.47265625 C191.31114238 123.48260771 198.81207697 129.50459687 205.125 141.1875 C205.56199219 141.99574219 205.99898438 142.80398437 206.44921875 143.63671875 C210.94931258 153.69482322 211.0264328 167.82821083 207.5625 178.25 C203.38992148 187.5726492 197.49159351 197.10013078 189.125 203.1875 C185.67913169 204.06526217 183.69841957 204.33708771 180.25 203.4375 C176.06006121 203.1023049 174.19797205 204.68404895 170.859375 207.05859375 C169.125 208.1875 169.125 208.1875 167.125 208.1875 C167.2075 209.26 167.29 210.3325 167.375 211.4375 C167.125 215.1875 167.125 215.1875 165.42089844 217.30175781 C162.99022307 219.29819939 161.12403721 220.16341503 158.140625 221.109375 C157.20605469 221.41230469 156.27148438 221.71523438 155.30859375 222.02734375 C153.85646484 222.47787109 153.85646484 222.47787109 152.375 222.9375 C151.39144531 223.25332031 150.40789062 223.56914062 149.39453125 223.89453125 C146.97461473 224.66984431 144.55168352 225.43368998 142.125 226.1875 C145.25935052 229.41108469 148.43896919 232.32062004 152 235.0625 C164.81757371 245.28626633 175.25108574 258.58910005 178.125 275.1875 C179.2886412 285.5756029 179.10449758 295.79166231 174.125 305.1875 C173.650625 306.10789062 173.17625 307.02828125 172.6875 307.9765625 C166.96779337 317.95855051 158.16765161 325.66242074 147.125 329.1875 C144.14249992 329.9752443 141.16087601 330.6420471 138.125 331.1875 C137.90585937 332.14269531 137.68671875 333.09789062 137.4609375 334.08203125 C134.16030946 347.82156453 128.91641693 360.39178303 116.38427734 368.28369141 C107.60139195 373.2841833 100.32622955 375.3591186 90.3125 375.25 C89.13010742 375.24323242 89.13010742 375.24323242 87.92382812 375.23632812 C85.99085239 375.22461312 84.05791607 375.20667998 82.125 375.1875 C81.98964844 375.77015625 81.85429687 376.3528125 81.71484375 376.953125 C77.74350544 392.07750323 67.89548695 405.10452256 54.8125 413.62890625 C37.30514962 423.7821516 21.53357115 424.63305107 1.80200195 424.59155273 C-0.65344044 424.59726238 -3.10888019 424.60422893 -5.5643158 424.61235046 C-11.51695896 424.62838099 -17.46950446 424.63039504 -23.42215767 424.62513756 C-28.26724144 424.62107838 -33.11229417 424.62256005 -37.95737648 424.62788582 C-38.64980913 424.62863424 -39.34224178 424.62938266 -40.05565724 424.63015376 C-41.46285814 424.63168542 -42.87005904 424.63322377 -44.27725992 424.63476873 C-57.44489894 424.64846552 -70.61247838 424.64307673 -83.780116 424.63158352 C-95.7884614 424.62166127 -107.79665249 424.63457935 -119.8049741 424.65851771 C-132.1746043 424.68298791 -144.54416287 424.69249678 -156.91381675 424.68586498 C-163.84253508 424.68238935 -170.77113498 424.68449391 -177.69983482 424.70211601 C-184.22120234 424.71849811 -190.74234932 424.71353387 -197.26371193 424.69481087 C-199.64435905 424.69114843 -202.02502827 424.69416415 -204.40565491 424.70469666 C-234.05490408 424.82576096 -258.01970036 418.08098889 -279.875 397.1875 C-298.0129631 378.13347816 -303.56594712 354.65854074 -303.1796875 329.10546875 C-302.9120757 320.8902289 -301.80794815 313.89270277 -298.875 306.1875 C-298.60655273 305.47045898 -298.33810547 304.75341797 -298.06152344 304.01464844 C-293.09818255 291.22428936 -293.09818255 291.22428936 -288.37890625 289.0234375 C-285.8125 288.6875 -285.8125 288.6875 -283.28515625 288.56640625 C-279.30035655 287.93994665 -277.47389861 285.54876853 -275.06640625 282.4765625 C-273.41303433 279.29992005 -273.47736168 276.85230187 -274.01953125 273.36328125 C-273.7973348 270.01832393 -272.14518403 268.57176363 -269.875 266.1875 C-255.45031637 255.31138071 -239.62272579 250.03016005 -221.875 248.1875 C-221.62621094 247.3625 -221.37742187 246.5375 -221.12109375 245.6875 C-214.47332079 227.01538536 -201.56194086 211.20891149 -186.875 198.1875 C-186.215 198.1875 -185.555 198.1875 -184.875 198.1875 C-186.26143417 195.79975227 -187.6815665 193.46274991 -189.26953125 191.203125 C-197.22578073 179.84280928 -199.89331791 169.01367553 -198.875 155.1875 C-196.4898794 143.13923367 -190.80930257 131.71583867 -180.875 124.1875 C-176.37357229 121.52305198 -171.64156687 119.32977724 -166.875 117.1875 C-166.84921875 116.08792969 -166.8234375 114.98835938 -166.796875 113.85546875 C-166.24566877 97.58843282 -161.98248904 85.39459488 -149.921875 73.96875 C-140.8835731 66.1033575 -129.11821603 62.30266213 -117.12109375 62.8125 C-101.69648544 64.59440421 -89.08848157 70.21175681 -75.875 78.1875 C-75.89594727 77.28209473 -75.91689453 76.37668945 -75.93847656 75.44384766 C-76.93168444 25.97832383 -76.93168444 25.97832383 -59.875 7.1875 C-43.49870415 -6.53171474 -19.03943789 -11.61405711 0 0 Z " fill="#020102" transform="translate(302.875,46.8125)"/>
<path d="M0 0 C25.44640397 18.48810501 41.71675532 44.70406569 47.42529297 75.58837891 C48.18672446 80.62769126 48.28130403 85.71720189 47.7578125 90.7890625 C47.4278125 91.1190625 47.0978125 91.4490625 46.7578125 91.7890625 C46.33389093 96.44958654 46.33389093 96.44958654 47.8828125 100.7265625 C50.5808632 102.25545789 52.71310962 102.04818615 55.7578125 101.7890625 C56.4178125 101.4590625 57.0778125 101.1290625 57.7578125 100.7890625 C69.93149378 99.59165123 81.30102115 105.47817842 90.7578125 112.7890625 C99.4486583 120.60622539 106.84637259 132.39436707 107.99121094 144.19482422 C108.84382685 160.50034764 106.81272189 172.51766328 96.7578125 185.7890625 C95.6440625 187.3359375 95.6440625 187.3359375 94.5078125 188.9140625 C84.74477424 199.12087522 71.00103511 205.64920406 56.8375845 206.04633141 C55.02714064 206.05977529 53.21659627 206.06255712 51.40611267 206.05648804 C49.89855537 206.06328471 49.89855537 206.06328471 48.36054236 206.07021868 C45.01236809 206.08281988 41.66435738 206.08124505 38.31616211 206.07958984 C35.90732617 206.08557787 33.49849216 206.09238405 31.08966064 206.09994507 C25.23609014 206.11575631 19.38255761 206.12205241 13.52897011 206.12316982 C8.76530028 206.12412293 4.00164364 206.12824631 -0.76202202 206.13457108 C-14.29617429 206.15217213 -27.83029495 206.16141206 -41.36445875 206.15991013 C-42.4572023 206.15979026 -42.4572023 206.15979026 -43.57202148 206.15966797 C-44.30141685 206.15958621 -45.03081222 206.15950445 -45.78231048 206.15942021 C-57.5885613 206.15860826 -69.39468425 206.17772582 -81.20089812 206.2059447 C-93.3511627 206.23475441 -105.50136511 206.24848048 -117.65166467 206.24675715 C-124.46189842 206.24609589 -131.27199822 206.25147092 -138.082201 206.27311325 C-144.49354058 206.29256999 -150.9045986 206.29256918 -157.31594849 206.27807999 C-159.65873568 206.27599982 -162.00154083 206.28064503 -164.34429741 206.2928009 C-188.52514056 206.41006263 -208.46766964 202.40934735 -226.8046875 185.4140625 C-227.6090625 184.5478125 -228.4134375 183.6815625 -229.2421875 182.7890625 C-229.83515625 182.21285156 -230.428125 181.63664063 -231.0390625 181.04296875 C-244.44527889 167.29899885 -249.88762995 148.31019358 -249.7175293 129.49975586 C-249.34904554 118.37520065 -246.01206879 109.19457639 -241.22265625 99.203125 C-239.82732272 95.7676026 -239.69815265 93.4418679 -240.2421875 89.7890625 C-240.9021875 89.1290625 -241.5621875 88.4690625 -242.2421875 87.7890625 C-241.79221425 83.42707689 -239.2121501 80.484651 -236.3671875 77.32421875 C-234.2421875 75.7890625 -234.2421875 75.7890625 -232.1171875 75.84765625 C-231.3540625 76.03457031 -230.5909375 76.22148437 -229.8046875 76.4140625 C-224.93011264 77.39045686 -222.54100288 76.12661992 -218.53979492 73.55200195 C-217.17098084 72.62417221 -215.8026563 71.69561986 -214.43481445 70.76635742 C-208.0250244 66.46516048 -201.67959121 63.9499298 -194.2421875 61.7890625 C-193.57058594 61.58667969 -192.89898437 61.38429688 -192.20703125 61.17578125 C-189.63270232 60.66910418 -187.17648258 60.65706171 -184.5546875 60.6640625 C-183.58144531 60.66148437 -182.60820312 60.65890625 -181.60546875 60.65625 C-179.2421875 60.7890625 -179.2421875 60.7890625 -178.2421875 61.7890625 C-174.76162876 61.61338892 -174.76162876 61.61338892 -171.2421875 60.7890625 C-168.88486032 57.87664077 -168.88486032 57.87664077 -169.3359375 54.08984375 C-169.44858721 49.34664093 -167.95506368 46.09730091 -165.7421875 41.9765625 C-165.3805249 41.28224121 -165.0188623 40.58791992 -164.64624023 39.87255859 C-150.52394364 13.41505559 -125.99977724 -6.69746425 -97.38208008 -15.42285156 C-64.54120487 -25.03757799 -28.29572046 -19.29563588 0 0 Z " fill="#EEECFE" transform="translate(264.2421875,250.2109375)"/>
<path d="M0 0 C2.04536283 1.43175398 3.94509742 2.89862186 5.8203125 4.54296875 C8.14160815 6.83641029 8.14160815 6.83641029 10.74609375 7.0390625 C14.2068257 6.55199652 15.56088062 5.18785796 18.1328125 2.85546875 C27.1817332 -4.63009523 36.03684531 -5.27782617 47.46826172 -4.54345703 C51.66294114 -4.08023434 54.88804272 -2.61432988 58.3828125 -0.33203125 C59.07632813 0.08046875 59.76984375 0.49296875 60.484375 0.91796875 C68.77708117 6.38432188 72.48735878 14.53400512 74.83984375 23.9296875 C78.73750365 43.58623129 77.9966396 66.63920351 71.3828125 85.66796875 C70.90254853 89.02981652 71.06544225 90.18556597 72.9453125 93.04296875 C75.35298722 94.98219082 75.35298722 94.98219082 78.6875 94.609375 C83.08203672 93.48983658 85.06540276 91.51941354 87.9453125 88.23046875 C99.95266858 75.43605976 115.16626228 65.11961401 133.13842773 64.28320312 C140.94877718 64.08886659 146.85898948 65.16878046 153.3828125 69.66796875 C154.9915625 70.75078125 154.9915625 70.75078125 156.6328125 71.85546875 C161.2967523 76.62540718 166.29925279 83.34732058 166.43286133 90.25585938 C166.40216553 91.26841797 166.37146973 92.28097656 166.33984375 93.32421875 C166.31857422 94.42894531 166.29730469 95.53367187 166.27539062 96.671875 C166.22199839 99.00290187 166.15688929 101.33368977 166.08007812 103.6640625 C166.05397461 105.32115234 166.05397461 105.32115234 166.02734375 107.01171875 C166.00003174 108.02427734 165.97271973 109.03683594 165.94458008 110.08007812 C166.14459381 112.77433705 166.14459381 112.77433705 168.1706543 114.46289062 C170.7686509 115.87815508 173.37571963 116.43021577 176.2421875 117.09375 C184.54980691 119.32225375 191.16286902 124.54575318 195.73828125 131.82421875 C199.6634685 139.41952694 200.6502172 147.10207703 198.734375 155.515625 C196.30270806 162.90415149 192.31712947 168.79136792 186.78515625 174.2421875 C184.66014175 176.40271756 183.40741476 177.95801794 183.30078125 181.03515625 C183.54305114 183.28931955 183.88656285 185.45695546 184.3828125 187.66796875 C182.80934074 188.70393775 181.22359704 189.72128607 179.6328125 190.73046875 C178.31023437 191.58318359 178.31023437 191.58318359 176.9609375 192.453125 C174.3828125 193.66796875 174.3828125 193.66796875 172.2421875 193.4765625 C170.3828125 192.66796875 170.3828125 192.66796875 167.3828125 190.66796875 C165.32619801 190.53041904 165.32619801 190.53041904 163.1328125 190.85546875 C162.40578125 190.93152344 161.67875 191.00757813 160.9296875 191.0859375 C158.23802302 191.70105714 155.90928407 192.74726792 153.39550781 193.86791992 C149.51145004 195.4118376 145.44612522 196.28588287 141.3828125 197.23046875 C140.4652417 197.44807861 139.5476709 197.66568848 138.60229492 197.88989258 C131.80123074 199.45635991 125.06204333 200.52063541 118.12109375 201.2109375 C115.24501342 201.4184012 115.24501342 201.4184012 113.3828125 203.66796875 C112.70581406 207.75412675 112.70581406 207.75412675 113.3828125 211.66796875 C115.62409122 214.07126762 118.44103637 215.27245562 121.3828125 216.66796875 C140.9586437 226.13938888 159.65152546 238.30301425 167.3828125 259.66796875 C170.0560229 268.51846263 168.63891467 276.80765348 164.796875 285.0390625 C160.522947 292.98479053 153.89724972 297.80136023 145.3828125 300.66796875 C141.52224983 301.22359344 137.66149654 301.61521388 133.78125 302.0078125 C130.52231953 302.45519873 130.52231953 302.45519873 128.44921875 303.7578125 C126.76412123 306.77617399 126.98049134 309.9227586 126.9453125 313.29296875 C126.70696444 319.87963997 125.81768722 324.92258478 122.3828125 330.66796875 C121.8259375 331.71984375 121.2690625 332.77171875 120.6953125 333.85546875 C115.9679125 339.60500929 108.74559069 344.18015347 101.3828125 345.66796875 C97.36797679 345.89074015 93.39844932 345.84867241 89.3828125 345.66796875 C89.36863281 344.61480469 89.35445313 343.56164062 89.33984375 342.4765625 C88.82921589 323.78627339 82.79209939 307.67492281 69.7578125 293.9140625 C58.24103556 283.02237378 44.56423708 277.94314918 29.3828125 274.66796875 C29.22425781 273.42144531 29.06570313 272.17492187 28.90234375 270.890625 C27.06748487 257.23905924 23.76314423 244.70803464 19.3828125 231.66796875 C21.96249047 230.80107697 24.54557377 229.94923086 27.1328125 229.10546875 C27.86242187 228.85861328 28.59203125 228.61175781 29.34375 228.35742188 C30.05273438 228.12861328 30.76171875 227.89980469 31.4921875 227.6640625 C32.14155273 227.44935303 32.79091797 227.23464355 33.45996094 227.01342773 C35.79735526 226.59349211 37.13329783 226.92457298 39.3828125 227.66796875 C41.57886268 229.59533266 43.61397173 231.52683894 45.65234375 233.609375 C46.2515715 234.21047592 46.85079926 234.81157684 47.46818542 235.43089294 C48.73662334 236.70605215 50.00145876 237.9848035 51.26293945 239.2668457 C53.17098268 241.20574547 55.08920287 243.1340557 57.00976562 245.06054688 C62.41115987 250.4966206 67.74923729 255.93686073 72.72485352 261.76977539 C76.3037104 265.86720025 80.13277234 269.72704023 83.9453125 273.60546875 C84.76966797 274.46720703 85.59402344 275.32894531 86.44335938 276.21679688 C87.24966797 277.03470703 88.05597656 277.85261719 88.88671875 278.6953125 C89.60674072 279.43515381 90.3267627 280.17499512 91.06860352 280.93725586 C93.87954574 283.03945751 95.9075424 283.43391693 99.3828125 283.66796875 C101.90150582 282.90405873 101.90150582 282.90405873 103.3828125 280.66796875 C104.00230355 277.38937579 104.22826748 275.80713644 103.3828125 272.66796875 C100.76879673 269.07122023 97.58742268 266.16783558 94.3203125 263.16796875 C92.61883281 261.55576822 90.91958188 259.94121198 89.22265625 258.32421875 C88.38661865 257.53337891 87.55058105 256.74253906 86.68920898 255.92773438 C84.71147534 253.98998667 82.89185435 252.02635536 81.1015625 249.91796875 C75.76016085 243.65072415 69.78464557 237.96534918 63.9453125 232.16796875 C62.7243756 230.95205761 61.50367058 229.73591359 60.28320312 228.51953125 C57.31907237 225.56631909 54.35182292 222.61627477 51.3828125 219.66796875 C53.07295291 216.03449938 55.04310276 213.95194379 58.0078125 211.23046875 C66.86233937 202.51669303 72.12959915 192.57920494 75.3828125 180.66796875 C75.59550781 179.9615625 75.80820312 179.25515625 76.02734375 178.52734375 C77.11510844 174.67712628 77.59279491 170.90773966 77.93359375 166.921875 C78.06181519 165.44376343 78.06181519 165.44376343 78.19262695 163.93579102 C78.25538818 163.18740967 78.31814941 162.43902832 78.3828125 161.66796875 C108.734375 148.66015625 108.734375 148.66015625 112.03948975 147.24420166 C114.20035567 146.31776921 116.36072108 145.3901684 118.52056885 144.46136475 C123.0103972 142.53188439 127.50084847 140.60884178 132.02246094 138.75488281 C132.68321625 138.48136993 133.34397156 138.20785706 134.02474976 137.92605591 C135.68603106 137.24083486 137.35136176 136.5654525 139.01708984 135.89111328 C141.67039685 134.76130164 141.67039685 134.76130164 143.3828125 131.66796875 C143.70443326 128.58040945 143.87005765 126.52781314 142.3203125 123.79296875 C139.33709155 122.06077594 136.69878421 122.15492803 133.3828125 122.66796875 C129.23024101 124.06781708 125.27289014 125.86210581 121.28125 127.6640625 C120.12662262 128.17219986 118.97199524 128.68033722 117.78237915 129.20387268 C114.72572166 130.55085699 111.67413105 131.90815298 108.62481689 133.27160645 C104.32573272 135.19171132 100.01957319 137.0957849 95.71182251 138.99635315 C93.42206307 140.00762139 91.13482616 141.02462499 88.85043335 142.04795837 C87.81230499 142.50836014 86.77417664 142.9687619 85.70458984 143.44311523 C84.79526703 143.84948715 83.88594421 144.25585907 82.94906616 144.67454529 C80.4276638 145.65060635 78.04494485 146.22462987 75.3828125 146.66796875 C75.0425 145.78496094 74.7021875 144.90195313 74.3515625 143.9921875 C70.75958639 135.09822537 66.66981798 126.76487965 59.64453125 119.9921875 C58.3828125 118.66796875 58.3828125 118.66796875 58.3828125 116.66796875 C57.795 116.3946875 57.2071875 116.12140625 56.6015625 115.83984375 C54.44799694 114.70239715 52.7651281 113.453542 50.8828125 111.91796875 C43.01578505 105.89592897 33.36023087 101.19428028 23.5703125 99.54296875 C22.59449219 99.37539062 21.61867188 99.2078125 20.61328125 99.03515625 C19.50919922 98.85339844 19.50919922 98.85339844 18.3828125 98.66796875 C18.38138748 97.92516663 18.37996246 97.1823645 18.37849426 96.41705322 C18.36065671 89.41308683 18.31902195 82.40975929 18.25072193 75.40613174 C18.21644587 71.80550068 18.19134118 68.20529412 18.18725586 64.60449219 C18.18297392 61.12870863 18.15452288 57.65388278 18.10938072 54.17839813 C18.0900899 52.20872625 18.09576422 50.23886122 18.10176086 48.269104 C18.08211777 47.06816101 18.06247467 45.86721802 18.04223633 44.62988281 C18.03224358 43.04436615 18.03224358 43.04436615 18.02204895 41.42681885 C17.58820293 38.46222353 17.58820293 38.46222353 15.04081726 36.28753662 C12.44715657 34.3710009 12.44715657 34.3710009 9.1953125 34.79296875 C6.27981542 35.46088054 6.27981542 35.46088054 4.3828125 37.66796875 C4.05059849 40.33762989 4.05059849 40.33762989 4.06396484 43.49462891 C4.04409515 44.71574371 4.02422546 45.93685852 4.00375366 47.19497681 C3.99187642 48.53232644 3.98021361 49.869678 3.96875 51.20703125 C3.95004501 52.57181987 3.9304721 53.93659686 3.9100647 55.30136108 C3.85866645 58.89503118 3.81908223 62.4887388 3.78192139 66.08258057 C3.74192971 69.74915915 3.6908154 73.4155806 3.640625 77.08203125 C3.54377477 84.27723607 3.45939943 91.4725167 3.3828125 98.66796875 C2.50818359 98.86567871 1.63355469 99.06338867 0.73242188 99.26708984 C-0.42451172 99.53086426 -1.58144531 99.79463867 -2.7734375 100.06640625 C-3.91619141 100.32599121 -5.05894531 100.58557617 -6.23632812 100.85302734 C-22.94353208 104.88022599 -36.6055168 114.53018567 -45.8671875 129.04296875 C-49.04908413 134.41085342 -51.5374713 139.79657485 -53.6171875 145.66796875 C-61.43620749 143.53042649 -68.82859039 140.65751329 -76.3046875 137.54296875 C-78.68710367 136.56413896 -81.06992398 135.58629232 -83.453125 134.609375 C-84.64518555 134.11969238 -85.83724609 133.63000977 -87.06542969 133.12548828 C-92.51229929 130.8902799 -97.96348996 128.66801443 -103.4296875 126.48046875 C-104.84157349 125.90111572 -104.84157349 125.90111572 -106.28198242 125.31005859 C-110.85045141 123.49437966 -114.60905394 122.05279644 -119.6171875 122.66796875 C-121.63669812 123.6039419 -121.63669812 123.6039419 -122.6171875 125.66796875 C-123.36730117 129.12525233 -123.36730117 129.12525233 -122.6171875 132.66796875 C-117.62703479 136.78786037 -111.68829141 138.82733967 -105.70703125 141.14453125 C-104.66196915 141.55585297 -103.61690704 141.96717468 -102.54017639 142.39096069 C-99.2142443 143.69828053 -95.8845809 144.99577653 -92.5546875 146.29296875 C-90.31159305 147.17252473 -88.06875165 148.05272635 -85.82617188 148.93359375 C-80.88656273 150.87275323 -75.94456726 152.80568149 -71.00035095 154.73306274 C-68.53478567 155.70029468 -66.07519425 156.68170416 -63.6171875 157.66796875 C-67.37621241 158.92097705 -70.02822988 158.08514505 -73.76953125 157.25390625 C-81.59651998 155.65815842 -89.12655693 155.20378779 -97.09936523 155.27685547 C-99.18344205 155.29299783 -101.26558882 155.27685357 -103.34960938 155.2578125 C-123.01899363 155.22677571 -140.830163 160.82561794 -158.15625 169.8984375 C-160.94835057 171.32600133 -163.68390941 172.57220394 -166.6171875 173.66796875 C-175.29272004 162.45777943 -179.05070473 155.13346076 -177.6171875 140.66796875 C-175.68115063 132.27847565 -171.12351546 125.492269 -163.8125 120.91015625 C-159.10969147 118.43310443 -154.65524803 116.50557871 -149.4296875 115.48046875 C-147.5425 115.07828125 -147.5425 115.07828125 -145.6171875 114.66796875 C-144.12633918 110.19542378 -144.12633918 106.14051372 -145.6171875 101.66796875 C-146.44962288 91.90286138 -144.8776869 83.411218 -138.6171875 75.66796875 C-131.60239789 68.55783248 -125.44826974 64.25196129 -115.1171875 64.16796875 C-92.80007512 64.35298918 -77.18502446 78.10013179 -62.2421875 93.04296875 C-59.60902514 95.00022384 -59.60902514 95.00022384 -55.9296875 94.60546875 C-52.35724302 93.9817274 -52.35724302 93.9817274 -50.6171875 90.66796875 C-50.37241866 84.84013922 -51.94434611 78.89823921 -53.1171875 73.23046875 C-54.39239536 67.02379298 -55.36370193 61.00510807 -55.6171875 54.66796875 C-55.64973633 53.8903418 -55.68228516 53.11271484 -55.71582031 52.31152344 C-56.3488365 34.95153409 -55.67022501 17.54923269 -43.4921875 3.91796875 C-31.65690621 -6.88487311 -13.68342889 -8.02329187 0 0 Z " fill="#FDB3BE" transform="translate(297.6171875,61.33203125)"/>
<path d="M0 0 C0.7031987 0.00141495 1.4063974 0.0028299 2.13090515 0.00428772 C4.36205419 0.00985516 6.59310039 0.0224015 8.82421875 0.03515625 C10.3430975 0.04017546 11.86197784 0.04473763 13.38085938 0.04882812 C17.09117887 0.05981389 20.80143876 0.07705591 24.51171875 0.09765625 C22.33087294 2.27850206 20.12402643 3.30777528 17.35791016 4.60913086 C-11.46421074 18.20111403 -32.57704768 42.1541042 -43.48828125 72.09765625 C-46.55605586 81.27378007 -49.01892476 90.39762202 -49.48828125 100.09765625 C-48.86953125 100.38640625 -48.25078125 100.67515625 -47.61328125 100.97265625 C-45.48828125 102.09765625 -45.48828125 102.09765625 -43.48828125 104.09765625 C-43.37231445 106.12548828 -43.37231445 106.12548828 -43.5390625 108.60546875 C-44.40286781 118.65417585 -44.40286781 118.65417585 -41.97265625 128.16015625 C-40.24328161 130.0160705 -38.46165057 131.51706787 -36.48828125 133.09765625 C-34.74463723 138.32858832 -34.95382651 142.4837618 -37.36328125 147.41015625 C-38.59939827 149.74046574 -39.6019428 151.2113178 -41.48828125 153.09765625 C-41.18762052 158.08422439 -39.28144512 162.20835477 -37.05078125 166.59765625 C-36.70096191 167.29036621 -36.35114258 167.98307617 -35.99072266 168.69677734 C-33.43363204 173.60840567 -30.57445746 178.21342311 -27.36328125 182.72265625 C-26.96826416 183.27759766 -26.57324707 183.83253906 -26.16625977 184.40429688 C-24.03229991 187.2970273 -21.75716889 189.87600888 -19.18359375 192.37109375 C-16.48828125 195.09765625 -16.48828125 195.09765625 -16.48828125 197.09765625 C-15.91335937 197.34644531 -15.3384375 197.59523438 -14.74609375 197.8515625 C-12.1617039 199.27789531 -10.4598314 200.95739239 -8.36328125 203.03515625 C-3.72457886 207.29476706 1.20166473 210.63381716 6.57421875 213.91015625 C7.31752441 214.36575928 8.06083008 214.8213623 8.82666016 215.29077148 C11.03930847 216.61266705 13.22907645 217.89884256 15.51171875 219.09765625 C16.4111448 219.58514044 16.4111448 219.58514044 17.32874107 220.0824728 C23.57947376 223.19832923 28.89870653 223.67783303 35.81469727 223.64355469 C36.90841141 223.65389236 38.00212555 223.66423004 39.12898254 223.67488098 C42.71634898 223.70419714 46.30314844 223.70580585 49.890625 223.70703125 C52.38884042 223.72202037 54.88704596 223.73874904 57.38523865 223.75714111 C63.27108266 223.79629615 69.15678543 223.81800779 75.04274076 223.83111501 C82.40816013 223.84859846 89.77337185 223.89344018 97.13867188 223.9375 C110.26297201 224.01272598 123.38724995 224.06382414 136.51171875 224.09765625 C136.51171875 224.42765625 136.51171875 224.75765625 136.51171875 225.09765625 C105.31774913 225.18906891 74.12381519 225.25977844 42.92974326 225.30191757 C39.24010857 225.3069199 35.55047414 225.31209724 31.86083984 225.31738281 C30.75911252 225.31895668 30.75911252 225.31895668 29.63512808 225.32056233 C17.77011982 225.33792852 5.90518973 225.36944512 -5.95977229 225.40626743 C-18.15041845 225.44378264 -30.3410239 225.46591436 -42.53172541 225.47401023 C-50.04331054 225.47947618 -57.55467464 225.49668747 -65.06619167 225.52932212 C-70.84329498 225.55313026 -76.62025927 225.55544959 -82.39740181 225.55008698 C-84.75470394 225.55118085 -87.112015 225.55904912 -89.46926689 225.57447815 C-113.70624376 225.72523886 -133.66707008 221.76121782 -152.05078125 204.72265625 C-152.85515625 203.85640625 -153.65953125 202.99015625 -154.48828125 202.09765625 C-155.08125 201.52144531 -155.67421875 200.94523438 -156.28515625 200.3515625 C-169.69137264 186.6075926 -175.1337237 167.61878733 -174.96362305 148.80834961 C-174.59513929 137.6837944 -171.25816254 128.50317014 -166.46875 118.51171875 C-165.07341647 115.07619635 -164.9442464 112.75046165 -165.48828125 109.09765625 C-166.14828125 108.43765625 -166.80828125 107.77765625 -167.48828125 107.09765625 C-167.038308 102.73567064 -164.45824385 99.79324475 -161.61328125 96.6328125 C-159.48828125 95.09765625 -159.48828125 95.09765625 -157.36328125 95.15625 C-156.60015625 95.34316406 -155.83703125 95.53007812 -155.05078125 95.72265625 C-150.17620639 96.69905061 -147.78709663 95.43521367 -143.78588867 92.8605957 C-142.41707459 91.93276596 -141.04875005 91.00421361 -139.6809082 90.07495117 C-133.27111815 85.77375423 -126.92568496 83.25852355 -119.48828125 81.09765625 C-118.81667969 80.89527344 -118.14507812 80.69289063 -117.453125 80.484375 C-114.87879607 79.97769793 -112.42257633 79.96565546 -109.80078125 79.97265625 C-108.82753906 79.97007812 -107.85429688 79.9675 -106.8515625 79.96484375 C-104.48828125 80.09765625 -104.48828125 80.09765625 -103.48828125 81.09765625 C-100.00772251 80.92198267 -100.00772251 80.92198267 -96.48828125 80.09765625 C-94.13095407 77.18523452 -94.13095407 77.18523452 -94.58203125 73.3984375 C-94.69468096 68.65523468 -93.20115743 65.40589466 -90.98828125 61.28515625 C-90.62661865 60.59083496 -90.26495605 59.89651367 -89.89233398 59.18115234 C-75.77003739 32.72364934 -51.24587099 12.6111295 -22.62817383 3.88574219 C-14.971774 1.64420053 -8.02776215 -0.03198312 0 0 Z " fill="#D2D2FC" transform="translate(189.48828125,230.90234375)"/>
<path d="M0 0 C2.04536283 1.43175398 3.94509742 2.89862186 5.8203125 4.54296875 C8.14160815 6.83641029 8.14160815 6.83641029 10.74609375 7.0390625 C14.2068257 6.55199652 15.56088062 5.18785796 18.1328125 2.85546875 C27.1817332 -4.63009523 36.03684531 -5.27782617 47.46826172 -4.54345703 C51.66294114 -4.08023434 54.88804272 -2.61432988 58.3828125 -0.33203125 C59.07632813 0.08046875 59.76984375 0.49296875 60.484375 0.91796875 C68.77708117 6.38432188 72.48735878 14.53400512 74.83984375 23.9296875 C78.74591412 43.62864669 77.94711698 66.59221214 71.3828125 85.66796875 C71.02566107 89.50734667 71.17056431 90.34959646 73.3828125 93.66796875 C72.94453125 94.0340625 72.50625 94.40015625 72.0546875 94.77734375 C65.47834353 100.39129592 59.44630314 106.51352575 53.3828125 112.66796875 C52.48820313 112.136875 51.59359375 111.60578125 50.671875 111.05859375 C41.93824829 105.92972509 33.68442062 101.31212342 23.58203125 99.56640625 C22.11576294 99.30996338 22.11576294 99.30996338 20.61987305 99.04833984 C19.51252808 98.86005615 19.51252808 98.86005615 18.3828125 98.66796875 C18.38138748 97.92516663 18.37996246 97.1823645 18.37849426 96.41705322 C18.36065671 89.41308683 18.31902195 82.40975929 18.25072193 75.40613174 C18.21644587 71.80550068 18.19134118 68.20529412 18.18725586 64.60449219 C18.18297392 61.12870863 18.15452288 57.65388278 18.10938072 54.17839813 C18.0900899 52.20872625 18.09576422 50.23886122 18.10176086 48.269104 C18.08211777 47.06816101 18.06247467 45.86721802 18.04223633 44.62988281 C18.03224358 43.04436615 18.03224358 43.04436615 18.02204895 41.42681885 C17.58820293 38.46222353 17.58820293 38.46222353 15.04081726 36.28753662 C12.44715657 34.3710009 12.44715657 34.3710009 9.1953125 34.79296875 C6.27981542 35.46088054 6.27981542 35.46088054 4.3828125 37.66796875 C4.05059849 40.33762989 4.05059849 40.33762989 4.06396484 43.49462891 C4.04409515 44.71574371 4.02422546 45.93685852 4.00375366 47.19497681 C3.99187642 48.53232644 3.98021361 49.869678 3.96875 51.20703125 C3.95004501 52.57181987 3.9304721 53.93659686 3.9100647 55.30136108 C3.85866645 58.89503118 3.81908223 62.4887388 3.78192139 66.08258057 C3.74192971 69.74915915 3.6908154 73.4155806 3.640625 77.08203125 C3.54377477 84.27723607 3.45939943 91.4725167 3.3828125 98.66796875 C2.50818359 98.86567871 1.63355469 99.06338867 0.73242188 99.26708984 C-0.42451172 99.53086426 -1.58144531 99.79463867 -2.7734375 100.06640625 C-3.91619141 100.32599121 -5.05894531 100.58557617 -6.23632812 100.85302734 C-22.94353208 104.88022599 -36.6055168 114.53018567 -45.8671875 129.04296875 C-49.04908413 134.41085342 -51.5374713 139.79657485 -53.6171875 145.66796875 C-61.43620749 143.53042649 -68.82859039 140.65751329 -76.3046875 137.54296875 C-78.68710367 136.56413896 -81.06992398 135.58629232 -83.453125 134.609375 C-84.64518555 134.11969238 -85.83724609 133.63000977 -87.06542969 133.12548828 C-92.51229929 130.8902799 -97.96348996 128.66801443 -103.4296875 126.48046875 C-104.84157349 125.90111572 -104.84157349 125.90111572 -106.28198242 125.31005859 C-110.85045141 123.49437966 -114.60905394 122.05279644 -119.6171875 122.66796875 C-121.63669812 123.6039419 -121.63669812 123.6039419 -122.6171875 125.66796875 C-123.36730117 129.12525233 -123.36730117 129.12525233 -122.6171875 132.66796875 C-117.62703479 136.78786037 -111.68829141 138.82733967 -105.70703125 141.14453125 C-104.66196915 141.55585297 -103.61690704 141.96717468 -102.54017639 142.39096069 C-99.2142443 143.69828053 -95.8845809 144.99577653 -92.5546875 146.29296875 C-90.31159305 147.17252473 -88.06875165 148.05272635 -85.82617188 148.93359375 C-80.88656273 150.87275323 -75.94456726 152.80568149 -71.00035095 154.73306274 C-68.53478567 155.70029468 -66.07519425 156.68170416 -63.6171875 157.66796875 C-67.37621241 158.92097705 -70.02822988 158.08514505 -73.76953125 157.25390625 C-81.59651998 155.65815842 -89.12655693 155.20378779 -97.09936523 155.27685547 C-99.18344205 155.29299783 -101.26558882 155.27685357 -103.34960938 155.2578125 C-123.01899363 155.22677571 -140.830163 160.82561794 -158.15625 169.8984375 C-160.94835057 171.32600133 -163.68390941 172.57220394 -166.6171875 173.66796875 C-175.29272004 162.45777943 -179.05070473 155.13346076 -177.6171875 140.66796875 C-175.68115063 132.27847565 -171.12351546 125.492269 -163.8125 120.91015625 C-159.10969147 118.43310443 -154.65524803 116.50557871 -149.4296875 115.48046875 C-147.5425 115.07828125 -147.5425 115.07828125 -145.6171875 114.66796875 C-144.12633918 110.19542378 -144.12633918 106.14051372 -145.6171875 101.66796875 C-146.44962288 91.90286138 -144.8776869 83.411218 -138.6171875 75.66796875 C-131.60239789 68.55783248 -125.44826974 64.25196129 -115.1171875 64.16796875 C-92.80007512 64.35298918 -77.18502446 78.10013179 -62.2421875 93.04296875 C-59.60902514 95.00022384 -59.60902514 95.00022384 -55.9296875 94.60546875 C-52.35724302 93.9817274 -52.35724302 93.9817274 -50.6171875 90.66796875 C-50.37241866 84.84013922 -51.94434611 78.89823921 -53.1171875 73.23046875 C-54.39239536 67.02379298 -55.36370193 61.00510807 -55.6171875 54.66796875 C-55.64973633 53.8903418 -55.68228516 53.11271484 -55.71582031 52.31152344 C-56.3488365 34.95153409 -55.67022501 17.54923269 -43.4921875 3.91796875 C-31.65690621 -6.88487311 -13.68342889 -8.02329187 0 0 Z " fill="#FD8D9D" transform="translate(297.6171875,61.33203125)"/>
<path d="M0 0 C10.56526119 8.85032024 18.96018416 21.11091685 21 35 C21.44387493 42.22882028 21.46587167 49.1417944 19 56 C18.67 56.93585938 18.34 57.87171875 18 58.8359375 C15.31104752 65.8590568 12.00376635 71.40183376 7 77 C6.45472656 77.62648438 5.90945313 78.25296875 5.34765625 78.8984375 C-3.87946539 88.842018 -16.61259536 94.1221374 -30 95 C-30.49628906 94.31035156 -30.99257813 93.62070312 -31.50390625 92.91015625 C-33.65736322 89.93127554 -35.82814784 86.96548798 -38 84 C-38.52722656 83.26007813 -39.05445313 82.52015625 -39.59765625 81.7578125 C-51.27621569 65.92754012 -66.48607214 53.79270664 -84 45 C-84.84265078 30.27701824 -80.51629003 18.58100584 -71.37890625 6.93359375 C-52.42931415 -13.37927836 -22.48142066 -15.54353417 0 0 Z " fill="#FDB3BE" transform="translate(340,184)"/>
<path d="M0 0 C9.36473054 4.25297806 14.62883663 13.59965222 18.75 22.625 C22.61915848 33.0717279 23.84024548 44.31931727 20 55 C19.67 55.93585938 19.34 56.87171875 19 57.8359375 C16.31104752 64.8590568 13.00376635 70.40183376 8 76 C7.45472656 76.62648438 6.90945313 77.25296875 6.34765625 77.8984375 C-2.87946539 87.842018 -15.61259536 93.1221374 -29 94 C-32.30341427 89.97396385 -33.58594827 87.24348673 -33.32421875 81.85546875 C-32.56524972 75.17105472 -31.33241501 68.589553 -30 62 C-29.85546387 61.27651367 -29.71092773 60.55302734 -29.56201172 59.80761719 C-25.10774666 37.99503682 -15.97829628 15.97829628 0 0 Z " fill="#FDD9DE" transform="translate(339,185)"/>
<path d="M0 0 C2.23046875 1.390625 2.23046875 1.390625 4 4 C4.32246178 7.43340596 4.03463309 10.81477531 3.8125 14.25 C3.44458083 21.37689612 3.44458083 21.37689612 5.5078125 28.0546875 C7.24026048 29.91338675 9.02349895 31.41690323 11 33 C12.66848725 38.00546176 12.59470227 42.25027954 10.4375 47.0625 C6.39671851 54.36698961 -0.22156472 58.4150537 -8 61 C-11.35711166 61.52422564 -14.6078953 61.56262347 -18 61.5 C-19.25683594 61.52320313 -19.25683594 61.52320313 -20.5390625 61.546875 C-28.97382224 61.49464739 -36.47049472 58.3423225 -43 53 C-47.24866553 48.16686196 -48.7876809 43.75048189 -48.4140625 37.3203125 C-47.26388907 30.87500102 -42.09337249 26.63374871 -37 23 C-29.08572377 17.60163053 -20.15707112 18.62152174 -11 19 C-11.04640625 17.96359375 -11.0928125 16.9271875 -11.140625 15.859375 C-11.17815275 14.48961221 -11.21455184 13.11981818 -11.25 11.75 C-11.28351563 11.06808594 -11.31703125 10.38617188 -11.3515625 9.68359375 C-11.41839759 6.24158674 -11.26198821 4.35767086 -9.203125 1.546875 C-5.98794888 -0.71058909 -3.83214687 -0.54744955 0 0 Z " fill="#FE8E9E" transform="translate(142,331)"/>
<path d="M0 0 C2.203125 1.546875 2.203125 1.546875 4 4 C4.2911521 6.73682971 4.38322418 9.03940039 4.25 11.75 C4.23195313 12.44738281 4.21390625 13.14476562 4.1953125 13.86328125 C4.14838554 15.57611539 4.07664605 17.28823824 4 19 C5.52367187 18.91298828 5.52367187 18.91298828 7.078125 18.82421875 C17.35722868 18.41180105 26.43523672 18.99609475 34.48046875 26.23046875 C38.33584377 30.41338005 40.74370006 33.38574058 41.3125 39.1875 C40.79938172 45.44754306 38.43067474 49.98624332 33.8125 54.25 C26.67292682 59.69634664 19.91151606 61.6645203 11 61.5 C9.74316406 61.52320313 9.74316406 61.52320313 8.4609375 61.546875 C0.02617776 61.49464739 -7.47049472 58.3423225 -14 53 C-18.25039965 48.16488928 -19.7709172 43.75751472 -19.42578125 37.328125 C-18.62545234 32.95201463 -16.45083763 30.02194037 -12.859375 27.4921875 C-9.8767646 23.49448701 -10.73801795 19.32701919 -11 14.5 C-11.52767308 4.77762349 -11.52767308 4.77762349 -9.21875 1.375 C-5.96263757 -0.64287249 -3.74932627 -0.53561804 0 0 Z " fill="#FE8E9E" transform="translate(267,331)"/>
<path d="M0 0 C4.80656491 0.06966036 7.50191152 2.41118311 11.2734375 5.15234375 C14.48634184 7.15315963 16.75768969 7.12487345 20.4375 6.5 C24.60013146 4.82114539 24.60013146 4.82114539 27.8125 1.8125 C30.1885746 -0.10663718 32.53163296 0.02515533 35.4921875 0.15625 C37.4375 0.5 37.4375 0.5 40 2.0625 C41.4375 4.5 41.4375 4.5 41.6875 7.8125 C39.64775162 13.82975773 35.5042497 16.77938136 30.0703125 19.828125 C23.23651384 22.9284426 16.26728178 23.94046123 8.98828125 21.76953125 C3.45319873 19.46716246 -2.27513685 16.35920394 -6.0625 11.625 C-6.82553308 8.3821094 -6.27785321 5.71908942 -5.5625 2.5 C-3.5625 0.5 -3.5625 0.5 0 0 Z " fill="#050505" transform="translate(183.5625,342.5)"/>
<path d="M0 0 C2.46788657 1.66438862 3.78774669 2.96536301 4.39697266 5.93505859 C4.57633797 8.28231476 4.59463824 10.5838468 4.5625 12.9375 C4.58634766 13.73607422 4.61019531 14.53464844 4.63476562 15.35742188 C4.62401307 19.68353454 4.3720977 21.50638817 1.69140625 25.0625 C-1 27 -1 27 -4.625 27.0625 C-8.46173978 25.85463748 -9.16355599 25.48215942 -11 22 C-11.4611039 18.99265327 -11.46418843 16.03762826 -11.4375 13 C-11.45748047 12.19304687 -11.47746094 11.38609375 -11.49804688 10.5546875 C-11.49488266 6.71965499 -11.46521931 4.65110607 -9.19140625 1.46875 C-5.97077196 -0.68982129 -3.78532019 -0.54076003 0 0 Z " fill="#060505" transform="translate(267,331)"/>
<path d="M0 0 C2.1953125 1.5 2.1953125 1.5 4 4 C4.34612503 6.98019513 4.4705768 9.53711928 4.375 12.5 C4.37371094 13.25925781 4.37242187 14.01851563 4.37109375 14.80078125 C4.25908644 21.90702259 4.25908644 21.90702259 2 25 C-1 27 -1 27 -4.5 26.875 C-8 26 -8 26 -9.69140625 24.5078125 C-11.66267239 20.73004277 -11.47439027 17.19878351 -11.4375 13 C-11.45748047 12.19304687 -11.47746094 11.38609375 -11.49804688 10.5546875 C-11.49488266 6.71965499 -11.46521931 4.65110607 -9.19140625 1.46875 C-5.97077196 -0.68982129 -3.78532019 -0.54076003 0 0 Z " fill="#050404" transform="translate(142,331)"/>
</svg>
