<svg width="386.946875px" height="107px" xmlns="http://www.w3.org/2000/svg" viewBox="56.52656250000001 21.5 386.946875 107" style="background: rgba(0, 0, 0, 0);" preserveAspectRatio="xMidYMid"><defs><filter id="editing-extrusion" x="-100%" y="-100%" width="300%" height="300%"><feFlood result="color1" flood-color="#444"></feFlood><feConvolveMatrix order="8,8" divisor="1" kernelMatrix="1 0 0 0 0 0 0 0 0 1 0 0 0 0 0 0 0 0 1 0 0 0 0 0 0 0 0 1 0 0 0 0 0 0 0 0 1 0 0 0 0 0 0 0 0 1 0 0 0 0 0 0 0 0 1 0 0 0 0 0 0 0 0 1" in="SourceAlpha" result="extrude"></feConvolveMatrix><feComposite in="color1" in2="extrude" result="comp-extrude" operator="in"></feComposite><feOffset dx="4" dy="4" in="comp-extrude" result="offset-extrude"></feOffset><feMerge><feMergeNode in="offset-extrude"></feMergeNode><feMergeNode in="SourceGraphic"></feMergeNode></feMerge></filter></defs><g filter="url(#editing-extrusion)"><g transform="translate(115.15496373176575, 99.25500106811523)"><path d="M2.30-4.86L2.30-4.86L2.30-11.65L4.86-11.65L4.86-5.89L4.86-5.89Q6.66-4.29 9.22-3.17L9.22-3.17L9.22-3.17Q11.78-2.05 15.30-2.05L15.30-2.05L15.30-2.05Q17.41-2.05 19.42-2.72L19.42-2.72L19.42-2.72Q21.44-3.39 22.98-4.64L22.98-4.64L22.98-4.64Q24.51-5.89 25.44-7.68L25.44-7.68L25.44-7.68Q26.37-9.47 26.37-11.78L26.37-11.78L26.37-11.78Q26.37-14.59 25.41-16.38L25.41-16.38L25.41-16.38Q24.45-18.18 22.91-19.33L22.91-19.33L22.91-19.33Q21.38-20.48 19.39-21.18L19.39-21.18L19.39-21.18Q17.41-21.89 15.33-22.50L15.33-22.50L15.33-22.50Q13.25-23.10 11.23-23.81L11.23-23.81L11.23-23.81Q9.22-24.51 7.58-25.66L7.58-25.66L7.58-25.66Q5.95-26.82 4.93-28.58L4.93-28.58L4.93-28.58Q3.90-30.34 3.78-33.09L3.78-33.09L3.78-33.09Q3.65-35.20 4.29-37.34L4.29-37.34L4.29-37.34Q4.93-39.49 6.34-41.18L6.34-41.18L6.34-41.18Q7.74-42.88 9.98-43.97L9.98-43.97L9.98-43.97Q12.22-45.06 15.42-45.06L15.42-45.06L15.42-45.06Q16.51-45.06 17.79-44.93L17.79-44.93L17.79-44.93Q19.07-44.80 20.42-44.48L20.42-44.48L20.42-44.48Q21.76-44.16 23.10-43.52L23.10-43.52L23.10-43.52Q24.45-42.88 25.66-41.86L25.66-41.86L25.66-34.94L23.10-34.94L23.10-40.58L23.10-40.58Q21.89-41.34 19.94-41.92L19.94-41.92L19.94-41.92Q17.98-42.50 15.36-42.50L15.36-42.50L15.36-42.50Q13.12-42.50 11.46-41.76L11.46-41.76L11.46-41.76Q9.79-41.02 8.67-39.78L8.67-39.78L8.67-39.78Q7.55-38.53 7.01-36.90L7.01-36.90L7.01-36.90Q6.46-35.26 6.46-33.54L6.46-33.54L6.46-33.54Q6.46-31.23 7.42-29.76L7.42-29.76L7.42-29.76Q8.38-28.29 9.95-27.33L9.95-27.33L9.95-27.33Q11.52-26.37 13.54-25.73L13.54-25.73L13.54-25.73Q15.55-25.09 17.66-24.45L17.66-24.45L17.66-24.45Q19.78-23.81 21.79-22.94L21.79-22.94L21.79-22.94Q23.81-22.08 25.41-20.70L25.41-20.70L25.41-20.70Q27.01-19.33 28-17.22L28-17.22L28-17.22Q28.99-15.10 29.06-11.90L29.06-11.90L29.06-11.90Q29.06-9.09 28-6.78L28-6.78L28-6.78Q26.94-4.48 25.12-2.85L25.12-2.85L25.12-2.85Q23.30-1.22 20.80-0.35L20.80-0.35L20.80-0.35Q18.30 0.51 15.55 0.51L15.55 0.51L15.55 0.51Q13.06 0.51 10.94 0L10.94 0L10.94 0Q8.83-0.51 7.14-1.31L7.14-1.31L7.14-1.31Q5.44-2.11 4.22-3.07L4.22-3.07L4.22-3.07Q3.01-4.03 2.30-4.86ZM48.70 0L48.70-2.56L51.78-2.56L51.78-2.56Q49.92-5.12 48.03-7.65L48.03-7.65L48.03-7.65Q46.14-10.18 44.29-12.74L44.29-12.74L40.19-8.90L40.19-2.56L45.18-2.56L45.18 0L32.83 0L32.83-2.56L37.57-2.56L37.57-45.44L33.02-45.44L33.02-48L40.19-48L40.19-12.16L50.11-21.44L46.27-21.44L46.27-24L58.11-24L58.11-21.44L53.50-21.44L53.50-21.44Q51.52-19.58 49.89-17.98L49.89-17.98L49.89-17.98Q48.26-16.38 46.27-14.53L46.27-14.53L46.27-14.53Q48.38-11.46 50.56-8.51L50.56-8.51L50.56-8.51Q52.74-5.57 54.98-2.56L54.98-2.56L60.54-2.56L60.54 0L48.70 0ZM65.02-12.03L65.02-12.03L65.02-12.03Q65.02-14.59 66.02-16.86L66.02-16.86L66.02-16.86Q67.01-19.14 68.70-20.83L68.70-20.83L68.70-20.83Q70.40-22.53 72.70-23.52L72.70-23.52L72.70-23.52Q75.01-24.51 77.63-24.51L77.63-24.51L77.63-24.51Q79.49-24.51 81.15-23.97L81.15-23.97L81.15-23.97Q82.82-23.42 84.16-22.56L84.16-22.56L84.16-22.56Q85.50-21.70 86.43-20.58L86.43-20.58L86.43-20.58Q87.36-19.46 87.81-18.37L87.81-18.37L87.81-18.37Q87.81-19.78 87.90-21.18L87.90-21.18L87.90-21.18Q88-22.59 88.06-24L88.06-24L90.24-24L90.24-2.56L94.98-2.56L94.98 0L87.81 0L87.81-2.56L87.81-2.56Q87.81-3.33 87.84-4.06L87.84-4.06L87.84-4.06Q87.87-4.80 87.87-5.50L87.87-5.50L87.87-5.50Q87.42-4.42 86.50-3.33L86.50-3.33L86.50-3.33Q85.57-2.24 84.26-1.41L84.26-1.41L84.26-1.41Q82.94-0.58 81.25-0.06L81.25-0.06L81.25-0.06Q79.55 0.45 77.63 0.45L77.63 0.45L77.63 0.45Q75.01 0.45 72.70-0.54L72.70-0.54L72.70-0.54Q70.40-1.54 68.70-3.20L68.70-3.20L68.70-3.20Q67.01-4.86 66.02-7.14L66.02-7.14L66.02-7.14Q65.02-9.41 65.02-12.03ZM67.71-12.03L67.71-12.03L67.71-12.03Q67.71-9.98 68.48-8.19L68.48-8.19L68.48-8.19Q69.25-6.40 70.56-5.06L70.56-5.06L70.56-5.06Q71.87-3.71 73.70-2.94L73.70-2.94L73.70-2.94Q75.52-2.18 77.63-2.18L77.63-2.18L77.63-2.18Q79.74-2.18 81.54-2.94L81.54-2.94L81.54-2.94Q83.33-3.71 84.67-5.06L84.67-5.06L84.67-5.06Q86.02-6.40 86.78-8.19L86.78-8.19L86.78-8.19Q87.55-9.98 87.55-12.03L87.55-12.03L87.55-12.03Q87.55-14.08 86.78-15.90L86.78-15.90L86.78-15.90Q86.02-17.73 84.67-19.07L84.67-19.07L84.67-19.07Q83.33-20.42 81.54-21.18L81.54-21.18L81.54-21.18Q79.74-21.95 77.63-21.95L77.63-21.95L77.63-21.95Q75.52-21.95 73.70-21.18L73.70-21.18L73.70-21.18Q71.87-20.42 70.56-19.07L70.56-19.07L70.56-19.07Q69.25-17.73 68.48-15.90L68.48-15.90L68.48-15.90Q67.71-14.08 67.71-12.03ZM117.50 0L117.50-2.56L122.50-2.56L122.50-16.64L122.50-16.64Q122.37-18.69 120.99-20.22L120.99-20.22L120.99-20.22Q119.62-21.76 116.93-21.89L116.93-21.89L116.93-21.89Q115.01-21.89 113.22-21.22L113.22-21.22L113.22-21.22Q111.42-20.54 110.05-19.39L110.05-19.39L110.05-19.39Q108.67-18.24 107.87-16.64L107.87-16.64L107.87-16.64Q107.07-15.04 107.07-13.12L107.07-13.12L107.07-2.56L111.81-2.56L111.81 0L99.46 0L99.46-2.56L104.45-2.56L104.45-21.44L99.84-21.44L99.84-24L106.62-24L106.69-21.76L106.69-21.76Q106.75-20.67 106.82-19.78L106.82-19.78L106.82-19.78Q106.88-18.88 106.88-17.79L106.88-17.79L106.88-17.79Q108.16-20.80 111.01-22.66L111.01-22.66L111.01-22.66Q113.86-24.51 117.44-24.51L117.44-24.51L117.44-24.51Q120.96-24.51 123.01-22.53L123.01-22.53L123.01-22.53Q125.06-20.54 125.18-17.34L125.18-17.34L125.18-2.56L129.86-2.56L129.86 0L117.50 0ZM134.34-12.03L134.34-12.03L134.34-12.03Q134.34-14.59 135.33-16.86L135.33-16.86L135.33-16.86Q136.32-19.14 138.02-20.83L138.02-20.83L138.02-20.83Q139.71-22.53 142.02-23.52L142.02-23.52L142.02-23.52Q144.32-24.51 146.94-24.51L146.94-24.51L146.94-24.51Q148.80-24.51 150.46-23.97L150.46-23.97L150.46-23.97Q152.13-23.42 153.47-22.56L153.47-22.56L153.47-22.56Q154.82-21.70 155.74-20.58L155.74-20.58L155.74-20.58Q156.67-19.46 157.12-18.37L157.12-18.37L157.12-18.37Q157.12-19.78 157.22-21.18L157.22-21.18L157.22-21.18Q157.31-22.59 157.38-24L157.38-24L159.55-24L159.55-2.56L164.29-2.56L164.29 0L157.12 0L157.12-2.56L157.12-2.56Q157.12-3.33 157.15-4.06L157.15-4.06L157.15-4.06Q157.18-4.80 157.18-5.50L157.18-5.50L157.18-5.50Q156.74-4.42 155.81-3.33L155.81-3.33L155.81-3.33Q154.88-2.24 153.57-1.41L153.57-1.41L153.57-1.41Q152.26-0.58 150.56-0.06L150.56-0.06L150.56-0.06Q148.86 0.45 146.94 0.45L146.94 0.45L146.94 0.45Q144.32 0.45 142.02-0.54L142.02-0.54L142.02-0.54Q139.71-1.54 138.02-3.20L138.02-3.20L138.02-3.20Q136.32-4.86 135.33-7.14L135.33-7.14L135.33-7.14Q134.34-9.41 134.34-12.03ZM137.02-12.03L137.02-12.03L137.02-12.03Q137.02-9.98 137.79-8.19L137.79-8.19L137.79-8.19Q138.56-6.40 139.87-5.06L139.87-5.06L139.87-5.06Q141.18-3.71 143.01-2.94L143.01-2.94L143.01-2.94Q144.83-2.18 146.94-2.18L146.94-2.18L146.94-2.18Q149.06-2.18 150.85-2.94L150.85-2.94L150.85-2.94Q152.64-3.71 153.98-5.06L153.98-5.06L153.98-5.06Q155.33-6.40 156.10-8.19L156.10-8.19L156.10-8.19Q156.86-9.98 156.86-12.03L156.86-12.03L156.86-12.03Q156.86-14.08 156.10-15.90L156.10-15.90L156.10-15.90Q155.33-17.73 153.98-19.07L153.98-19.07L153.98-19.07Q152.64-20.42 150.85-21.18L150.85-21.18L150.85-21.18Q149.06-21.95 146.94-21.95L146.94-21.95L146.94-21.95Q144.83-21.95 143.01-21.18L143.01-21.18L143.01-21.18Q141.18-20.42 139.87-19.07L139.87-19.07L139.87-19.07Q138.56-17.73 137.79-15.90L137.79-15.90L137.79-15.90Q137.02-14.08 137.02-12.03ZM169.92-2.11L169.92-2.11L169.92-2.11Q169.92-3.01 170.56-3.62L170.56-3.62L170.56-3.62Q171.20-4.22 172.03-4.22L172.03-4.22L172.03-4.22Q172.80-4.22 173.44-3.62L173.44-3.62L173.44-3.62Q174.08-3.01 174.08-2.11L174.08-2.11L174.08-2.11Q174.08-1.22 173.44-0.61L173.44-0.61L173.44-0.61Q172.80 0 172.03 0L172.03 0L172.03 0Q171.20 0 170.56-0.61L170.56-0.61L170.56-0.61Q169.92-1.22 169.92-2.11ZM179.26-12.03L179.26-12.03L179.26-12.03Q179.26-14.59 180.26-16.90L180.26-16.90L180.26-16.90Q181.25-19.20 182.94-20.90L182.94-20.90L182.94-20.90Q184.64-22.59 186.91-23.58L186.91-23.58L186.91-23.58Q189.18-24.58 191.81-24.58L191.81-24.58L191.81-24.58Q194.43-24.58 196.74-23.58L196.74-23.58L196.74-23.58Q199.04-22.59 200.77-20.90L200.77-20.90L200.77-20.90Q202.50-19.20 203.49-16.90L203.49-16.90L203.49-16.90Q204.48-14.59 204.48-12.03L204.48-12.03L204.48-12.03Q204.48-9.41 203.49-7.14L203.49-7.14L203.49-7.14Q202.50-4.86 200.77-3.20L200.77-3.20L200.77-3.20Q199.04-1.54 196.74-0.54L196.74-0.54L196.74-0.54Q194.43 0.45 191.81 0.45L191.81 0.45L191.81 0.45Q189.18 0.45 186.91-0.54L186.91-0.54L186.91-0.54Q184.64-1.54 182.94-3.20L182.94-3.20L182.94-3.20Q181.25-4.86 180.26-7.14L180.26-7.14L180.26-7.14Q179.26-9.41 179.26-12.03ZM181.89-12.03L181.89-12.03L181.89-12.03Q181.89-9.98 182.66-8.19L182.66-8.19L182.66-8.19Q183.42-6.40 184.77-5.06L184.77-5.06L184.77-5.06Q186.11-3.71 187.90-2.94L187.90-2.94L187.90-2.94Q189.70-2.18 191.74-2.18L191.74-2.18L191.74-2.18Q193.79-2.18 195.62-2.94L195.62-2.94L195.62-2.94Q197.44-3.71 198.78-5.06L198.78-5.06L198.78-5.06Q200.13-6.40 200.90-8.19L200.90-8.19L200.90-8.19Q201.66-9.98 201.66-12.03L201.66-12.03L201.66-12.03Q201.66-14.08 200.90-15.87L200.90-15.87L200.90-15.87Q200.13-17.66 198.78-19.01L198.78-19.01L198.78-19.01Q197.44-20.35 195.62-21.15L195.62-21.15L195.62-21.15Q193.79-21.95 191.74-21.95L191.74-21.95L191.74-21.95Q189.70-21.95 187.90-21.15L187.90-21.15L187.90-21.15Q186.11-20.35 184.77-19.01L184.77-19.01L184.77-19.01Q183.42-17.66 182.66-15.87L182.66-15.87L182.66-15.87Q181.89-14.08 181.89-12.03ZM227.01 0L227.01-2.56L232-2.56L232-16.64L232-16.64Q231.87-18.69 230.50-20.22L230.50-20.22L230.50-20.22Q229.12-21.76 226.43-21.89L226.43-21.89L226.43-21.89Q224.51-21.89 222.72-21.22L222.72-21.22L222.72-21.22Q220.93-20.54 219.55-19.39L219.55-19.39L219.55-19.39Q218.18-18.24 217.38-16.64L217.38-16.64L217.38-16.64Q216.58-15.04 216.58-13.12L216.58-13.12L216.58-2.56L221.31-2.56L221.31 0L208.96 0L208.96-2.56L213.95-2.56L213.95-21.44L209.34-21.44L209.34-24L216.13-24L216.19-21.76L216.19-21.76Q216.26-20.67 216.32-19.78L216.32-19.78L216.32-19.78Q216.38-18.88 216.38-17.79L216.38-17.79L216.38-17.79Q217.66-20.80 220.51-22.66L220.51-22.66L220.51-22.66Q223.36-24.51 226.94-24.51L226.94-24.51L226.94-24.51Q230.46-24.51 232.51-22.53L232.51-22.53L232.51-22.53Q234.56-20.54 234.69-17.34L234.69-17.34L234.69-2.56L239.36-2.56L239.36 0L227.01 0ZM256.38-21.95L256.38-21.95L256.38-21.95Q254.02-21.95 252.06-20.96L252.06-20.96L252.06-20.96Q250.11-19.97 248.77-18.34L248.77-18.34L248.77-18.34Q247.42-16.70 246.88-14.56L246.88-14.56L246.88-14.56Q246.34-12.42 246.78-10.18L246.78-10.18L246.78-10.18Q251.07-11.90 255.36-13.60L255.36-13.60L255.36-13.60Q259.65-15.30 264-17.02L264-17.02L264-17.02Q262.91-19.20 260.86-20.58L260.86-20.58L260.86-20.58Q258.82-21.95 256.38-21.95ZM267.39-15.55L267.39-15.55L267.39-15.55Q262.40-13.57 257.47-11.62L257.47-11.62L257.47-11.62Q252.54-9.66 247.55-7.68L247.55-7.68L247.55-7.68Q248.64-5.25 251.01-3.71L251.01-3.71L251.01-3.71Q253.38-2.18 256.38-2.18L256.38-2.18L256.38-2.18Q258.37-2.18 260.10-2.88L260.10-2.88L260.10-2.88Q261.82-3.58 263.10-4.86L263.10-4.86L263.10-4.86Q263.55-4.35 263.94-3.87L263.94-3.87L263.94-3.87Q264.32-3.39 264.77-2.88L264.77-2.88L264.77-2.88Q263.10-1.34 260.99-0.45L260.99-0.45L260.99-0.45Q258.88 0.45 256.38 0.45L256.38 0.45L256.38 0.45Q253.76 0.45 251.49-0.54L251.49-0.54L251.49-0.54Q249.22-1.54 247.52-3.20L247.52-3.20L247.52-3.20Q245.82-4.86 244.83-7.14L244.83-7.14L244.83-7.14Q243.84-9.41 243.84-12.03L243.84-12.03L243.84-12.03Q243.84-14.59 244.83-16.90L244.83-16.90L244.83-16.90Q245.82-19.20 247.52-20.86L247.52-20.86L247.52-20.86Q249.22-22.53 251.49-23.52L251.49-23.52L251.49-23.52Q253.76-24.51 256.38-24.51L256.38-24.51L256.38-24.51Q258.30-24.51 260.03-23.84L260.03-23.84L260.03-23.84Q261.76-23.17 263.20-21.98L263.20-21.98L263.20-21.98Q264.64-20.80 265.73-19.17L265.73-19.17L265.73-19.17Q266.82-17.54 267.39-15.55Z" fill="#ccc"></path></g></g><style>text {
  font-size: 64px;
  font-family: Arial Black;
  dominant-baseline: central;
  text-anchor: middle;
}</style></svg>